<svg width="367" height="367" viewBox="0 0 367 367" fill="none" xmlns="http://www.w3.org/2000/svg">
<circle cx="183.5" cy="183.5" r="183.125" fill="#FFDE21" fill-opacity="0.1"/>
<circle cx="183" cy="183.5" r="159" fill="#FFDE21" fill-opacity="0.2"/>
<path d="M183 276C228.978 276 266.25 238.728 266.25 192.75C266.25 146.772 228.978 109.5 183 109.5C137.022 109.5 99.75 146.772 99.75 192.75C99.75 238.728 137.022 276 183 276Z" stroke="#FFDE21" stroke-width="13.875" stroke-linecap="round"/>
<path d="M183 104.875V91" stroke="#FFDE21" stroke-width="13.875" stroke-linecap="round" stroke-linejoin="round"/>
<path d="M164.5 91H201.5" stroke="#FFDE21" stroke-width="13.875" stroke-linecap="round" stroke-linejoin="round"/>
<path d="M208.648 167.378C215.431 174.099 204.578 228.763 193.442 229.726C184.1 230.534 181.188 212.108 179.22 206.268C177.279 200.504 175.117 198.429 169.401 196.538C154.879 191.733 147.618 189.331 146.18 185.528C142.374 175.456 199.985 158.793 208.648 167.378Z" stroke="#FFDE21" stroke-width="13.875"/>
</svg>
